<svg width="112" height="34" viewBox="0 0 112 34" fill="none" xmlns="http://www.w3.org/2000/svg">
<g id="StoreBadge">
<g id="Store=App Gallery, Color=White, Language=ENG">
<g id="Group">
<path id="Vector" d="M104.072 0.000976562H7.90562C7.59208 0.000976562 7.30094 0.000976562 6.9874 0.000976562C6.74105 0.000976562 6.47231 0.000976562 6.22595 0.000976562C5.66607 0.0236584 5.10618 0.0463401 4.56869 0.159749C4.0088 0.250476 3.4937 0.431931 3.001 0.68143C2.5083 0.93093 2.06039 1.27116 1.65727 1.67943C1.25415 2.0877 0.940612 2.54134 0.671866 3.04034C0.403119 3.56202 0.246351 4.0837 0.156769 4.62806C0.0671866 5.19511 0.0223955 5.73947 0 6.30651C0 6.5787 0 6.8282 0 7.10038C0 7.39524 0 7.71278 0 8.00765V26.017C0 26.3345 0 26.6294 0 26.9243C0 27.1738 0 27.4459 0.0223955 27.6954C0.044791 28.2625 0.0671866 28.8295 0.179164 29.3739C0.268746 29.9409 0.44791 30.4626 0.694261 30.9616C0.940612 31.4606 1.27654 31.9143 1.67966 32.3225C2.08278 32.7308 2.53069 33.0483 3.0234 33.3205C3.53849 33.5927 4.05359 33.7515 4.59108 33.8422C5.15097 33.9329 5.71086 33.9783 6.24835 34.001C6.4947 34.001 6.76345 34.001 7.0098 34.001C7.32333 34.001 7.61448 34.001 7.92801 34.001H104.094C104.386 34.001 104.699 34.001 104.99 34.001C105.237 34.001 105.505 34.001 105.752 34.001C106.312 33.9783 106.871 33.9556 107.409 33.8422C107.969 33.7515 108.484 33.57 108.999 33.3205C109.492 33.071 109.94 32.7308 110.343 32.3225C110.746 31.9369 111.059 31.4606 111.328 30.9616C111.574 30.4626 111.754 29.9183 111.843 29.3739C111.955 28.8068 111.978 28.2625 112 27.6954C112 27.4459 112 27.1738 112 26.9243C112 26.6294 112 26.3119 112 26.017V8.00765C112 7.6901 112 7.39524 112 7.10038C112 6.85088 112 6.5787 112 6.3292C111.978 5.76215 111.955 5.19511 111.843 4.65074C111.754 4.0837 111.574 3.56202 111.328 3.06302C111.082 2.56402 110.746 2.11038 110.343 1.70211C109.962 1.29384 109.492 0.976294 108.999 0.704112C108.484 0.454612 107.969 0.273158 107.409 0.182431C106.871 0.0917037 106.312 0.0463401 105.752 0.0236584C105.505 0.0236584 105.237 0.0236584 104.99 0.0236584C104.677 0.000976562 104.386 0.000976562 104.072 0.000976562Z" fill="black"/>
<path id="Vector_2" d="M7.00982 33.2978C6.76347 33.2978 6.51712 33.2978 6.27077 33.2978C5.80046 33.2751 5.26297 33.2524 4.72548 33.1617C4.21038 33.071 3.76247 32.9122 3.35935 32.7081C2.93384 32.4812 2.53072 32.2091 2.19478 31.8462C1.85885 31.5059 1.56771 31.1203 1.34375 30.6667C1.1198 30.2357 0.985425 29.7821 0.895843 29.2831C0.783866 28.7161 0.76147 28.149 0.76147 27.7181C0.76147 27.5366 0.739075 26.9469 0.739075 26.9469V7.10032C0.739075 7.10032 0.739075 6.51059 0.76147 6.35182C0.76147 5.92087 0.806261 5.33114 0.895843 4.78678C0.985425 4.2651 1.14219 3.81146 1.34375 3.38051C1.56771 2.94955 1.83646 2.54128 2.19478 2.20105C2.53072 1.86083 2.93384 1.56596 3.35935 1.33915C3.78487 1.11233 4.23278 0.976238 4.72548 0.885511C5.28537 0.794784 5.84525 0.74942 6.27077 0.74942H7.00982H104.99H105.752C106.177 0.74942 106.737 0.794784 107.297 0.885511C107.79 0.976238 108.238 1.13501 108.685 1.33915C109.111 1.56596 109.492 1.83815 109.85 2.20105C110.186 2.54128 110.477 2.92687 110.701 3.38051C110.925 3.81146 111.059 4.2651 111.149 4.7641C111.239 5.28578 111.283 5.83014 111.283 6.35182C111.283 6.57864 111.283 6.85082 111.283 7.10032C111.283 7.41787 111.283 7.71273 111.283 8.00759V26.0169C111.283 26.3118 111.283 26.6293 111.283 26.9242C111.283 27.1964 111.283 27.4459 111.283 27.6954C111.261 28.1944 111.239 28.7387 111.149 29.2604C111.059 29.7821 110.925 30.2357 110.701 30.6667C110.477 31.0977 110.186 31.5059 109.85 31.8235C109.514 32.1637 109.111 32.4586 108.685 32.6854C108.26 32.9122 107.812 33.0483 107.297 33.139C106.759 33.2297 106.222 33.2524 105.752 33.2751C105.505 33.2751 105.259 33.2751 105.013 33.2751H104.117L7.00982 33.2978Z" fill="white"/>
</g>
<g id="Group_2">
<g id="Group_3">
<path id="Vector_3" d="M41.5661 22.9777H37.6245L36.6615 25.6315H34.937L38.7891 15.6742H40.4239L44.3656 25.6315H42.5515L41.5661 22.9777ZM38.1172 21.6168H41.051L39.9984 18.7589C39.8641 18.3733 39.7073 17.9197 39.5729 17.4433C39.4385 17.8743 39.3042 18.3053 39.1698 18.7362L38.1172 21.6168Z" fill="black"/>
<path id="Vector_4" d="M45.0598 20.0291C45.0598 19.4847 45.0374 18.8723 45.015 18.2145H46.5827C46.6499 18.5321 46.6723 18.8269 46.6947 19.1445C47.3441 18.4187 48.0832 18.0558 48.9342 18.0558C49.4269 18.0558 49.8748 18.1692 50.3004 18.4187C50.7259 18.6682 51.0618 19.0538 51.3082 19.5981C51.5545 20.1425 51.6889 20.8229 51.6889 21.6395C51.6889 22.5014 51.5321 23.2499 51.241 23.8623C50.9498 24.4747 50.5467 24.951 50.0092 25.2459C49.4941 25.5634 48.8894 25.7222 48.1952 25.7222C47.7025 25.7222 47.2098 25.6315 46.7171 25.4727V28.5801L45.0374 28.7162V20.0291H45.0598ZM49.4717 23.8169C49.8077 23.3633 49.9868 22.6828 49.9868 21.7756C49.9868 20.9363 49.8524 20.3466 49.5613 19.9837C49.2702 19.6208 48.9118 19.4167 48.4415 19.4167C48.1056 19.4167 47.8145 19.4847 47.5457 19.6435C47.277 19.8023 47.0082 20.0064 46.7619 20.2786V24.2479C46.9186 24.3386 47.1202 24.4067 47.3441 24.452C47.5681 24.4974 47.7921 24.5201 47.9936 24.5201C48.6207 24.5201 49.1134 24.2932 49.4717 23.8169Z" fill="black"/>
<path id="Vector_5" d="M52.6967 20.0291C52.6967 19.4847 52.6743 18.8723 52.6519 18.2145H54.2196C54.2868 18.5321 54.3092 18.8269 54.3316 19.1445C54.9811 18.4187 55.7201 18.0558 56.5711 18.0558C57.0638 18.0558 57.5117 18.1692 57.9373 18.4187C58.3628 18.6682 58.6987 19.0538 58.9451 19.5981C59.1914 20.1425 59.3258 20.8229 59.3258 21.6395C59.3258 22.5014 59.169 23.2499 58.8779 23.8623C58.5867 24.4747 58.1836 24.951 57.6461 25.2459C57.131 25.5634 56.5263 25.7222 55.8321 25.7222C55.3394 25.7222 54.8467 25.6315 54.354 25.4727V28.5801L52.6743 28.7162V20.0291H52.6967ZM57.1086 23.8169C57.4446 23.3633 57.6237 22.6828 57.6237 21.7756C57.6237 20.9363 57.4893 20.3466 57.1982 19.9837C56.9071 19.6208 56.5487 19.4167 56.0784 19.4167C55.7425 19.4167 55.4514 19.4847 55.1826 19.6435C54.9139 19.8023 54.6451 20.0064 54.3988 20.2786V24.2479C54.5555 24.3386 54.7571 24.4067 54.981 24.452C55.205 24.4974 55.429 24.5201 55.6305 24.5201C56.2576 24.5201 56.7727 24.2932 57.1086 23.8169Z" fill="black"/>
<path id="Vector_6" d="M62.394 25.1552C61.6773 24.7469 61.1174 24.1798 60.7367 23.4087C60.356 22.6602 60.1544 21.7529 60.1544 20.7322C60.1544 19.6208 60.3784 18.6682 60.8263 17.897C61.2742 17.1258 61.8789 16.5361 62.6627 16.1505C63.4242 15.7649 64.2976 15.5608 65.2606 15.5608C65.8205 15.5608 66.358 15.6288 66.8731 15.7422C67.3882 15.8783 67.8585 16.0371 68.3064 16.2639L67.8809 17.5794C66.9851 17.1485 66.134 16.9443 65.3278 16.9443C64.6559 16.9443 64.0512 17.1031 63.5361 17.398C63.021 17.6928 62.6179 18.1238 62.3492 18.6908C62.058 19.2579 61.9237 19.961 61.9237 20.7549C61.9237 21.458 62.0356 22.0931 62.2596 22.6375C62.4836 23.1818 62.8195 23.6128 63.2898 23.953C63.7601 24.2706 64.3648 24.4293 65.0814 24.4293C65.4174 24.4293 65.7309 24.4067 66.0668 24.3386C66.4028 24.2706 66.6939 24.2025 66.9851 24.0891V22.0704H64.7231V20.7549H68.6199V24.951C68.06 25.2232 67.4778 25.4273 66.8507 25.5634C66.2236 25.6995 65.6189 25.7676 65.0142 25.7676C63.984 25.7676 63.133 25.5634 62.394 25.1552Z" fill="black"/>
<path id="Vector_7" d="M74.5099 25.6314C74.4427 25.3365 74.4203 25.019 74.3979 24.6561C74.1292 24.9736 73.8157 25.2231 73.3901 25.4499C72.987 25.6768 72.5167 25.7675 71.9792 25.7675C71.5537 25.7675 71.173 25.6768 70.8371 25.518C70.5011 25.3592 70.21 25.1097 70.0084 24.7695C69.8069 24.4293 69.6949 24.021 69.6949 23.5447C69.6949 22.8189 69.9412 22.2518 70.4563 21.8209C70.9714 21.3899 71.8225 21.1858 73.0094 21.1858C73.4573 21.1858 73.9052 21.2084 74.3307 21.2765V21.1404C74.3307 20.4826 74.1964 20.029 73.9276 19.7568C73.6589 19.4846 73.2558 19.3485 72.7407 19.3485C72.3823 19.3485 72.0016 19.3939 71.5985 19.5073C71.1954 19.6207 70.8371 19.7341 70.5235 19.8929L70.2548 18.6681C70.5459 18.532 70.949 18.3959 71.4417 18.2825C71.9344 18.1691 72.4495 18.101 72.987 18.101C73.6141 18.101 74.1516 18.1918 74.5995 18.3959C75.0474 18.6 75.3833 18.9176 75.6297 19.3939C75.876 19.8702 76.0104 20.5053 76.0104 21.2992V24.2478C76.0104 24.5654 76.0328 25.019 76.0552 25.6314H74.5099ZM73.5245 24.2478C73.8828 24.089 74.1516 23.8622 74.3755 23.6127V22.2291C73.9276 22.1838 73.5469 22.1611 73.2558 22.1611C72.5615 22.1611 72.0912 22.2745 71.8225 22.5013C71.5537 22.7281 71.4193 23.023 71.4193 23.4086C71.4193 23.7715 71.5089 24.0437 71.7105 24.2251C71.912 24.4066 72.1584 24.4973 72.4943 24.4973C72.8303 24.52 73.1662 24.4293 73.5245 24.2478Z" fill="black"/>
<path id="Vector_8" d="M77.3318 23.8623V15.1071L78.9891 14.971V23.5674C78.9891 23.885 79.0338 24.1118 79.1458 24.2479C79.2578 24.384 79.4146 24.452 79.6609 24.452C79.7729 24.452 79.9073 24.4293 80.1088 24.384L80.3104 25.6088C80.1536 25.6768 79.9521 25.7222 79.7281 25.7675C79.5042 25.8129 79.2802 25.8356 79.0786 25.8356C77.9141 25.7675 77.3318 25.1324 77.3318 23.8623Z" fill="black"/>
<path id="Vector_9" d="M81.4973 23.8623V15.1071L83.1546 14.971V23.5674C83.1546 23.885 83.1994 24.1118 83.3114 24.2479C83.4233 24.384 83.5801 24.452 83.8264 24.452C83.9384 24.452 84.0728 24.4293 84.2744 24.384L84.4759 25.6088C84.3192 25.6768 84.1176 25.7222 83.8936 25.7675C83.6697 25.8129 83.4457 25.8356 83.2442 25.8356C82.0796 25.7675 81.4973 25.1324 81.4973 23.8623Z" fill="black"/>
<path id="Vector_10" d="M91.329 22.1385H86.5363C86.6035 23.6808 87.3426 24.4747 88.7311 24.4747C89.067 24.4747 89.4254 24.4293 89.7837 24.3386C90.142 24.2479 90.478 24.1345 90.8139 23.9984L91.1722 25.1552C90.3436 25.5634 89.4254 25.7676 88.4176 25.7676C87.6337 25.7676 86.9843 25.6088 86.4468 25.3139C85.9093 25.0191 85.5062 24.5881 85.2374 24.0211C84.9687 23.454 84.8343 22.7963 84.8343 22.0024C84.8343 21.1858 84.9687 20.4827 85.2598 19.893C85.551 19.3033 85.9317 18.8496 86.4468 18.5321C86.9619 18.2145 87.5441 18.0558 88.216 18.0558C88.9103 18.0558 89.4926 18.2145 89.9405 18.5548C90.4108 18.8723 90.7467 19.3259 90.9707 19.8703C91.1946 20.4147 91.3066 21.0271 91.3066 21.6848V22.1385H91.329ZM89.6941 21.0724C89.6717 20.4827 89.515 20.0291 89.2462 19.7342C88.9775 19.4393 88.6415 19.2806 88.1936 19.2806C87.7681 19.2806 87.4098 19.4393 87.141 19.7342C86.8499 20.0291 86.6707 20.4827 86.5811 21.0498H89.6941V21.0724Z" fill="black"/>
<path id="Vector_11" d="M92.5831 20.0744C92.5831 19.6661 92.5607 19.0537 92.5383 18.2145H94.106C94.1284 18.4186 94.1508 18.6681 94.1732 18.963C94.1956 19.2578 94.218 19.4846 94.218 19.6661C94.4195 19.3485 94.5987 19.0764 94.8002 18.8495C94.9794 18.6227 95.2034 18.4413 95.4497 18.3052C95.6961 18.1691 95.9872 18.101 96.3007 18.101C96.5695 18.101 96.7711 18.1237 96.9726 18.1918L96.7711 19.6661C96.6143 19.6207 96.4351 19.598 96.2336 19.598C95.8304 19.598 95.4945 19.6888 95.2034 19.8929C94.9122 20.097 94.5987 20.4373 94.2628 20.8909V25.6541H92.6055V20.0744H92.5831Z" fill="black"/>
<path id="Vector_12" d="M97.9132 28.6708C97.6669 28.6254 97.4653 28.58 97.3086 28.512L97.6221 27.2872C97.7341 27.3098 97.8684 27.3552 98.0476 27.3779C98.2268 27.4006 98.3835 27.4233 98.5403 27.4233C99.2794 27.4233 99.8393 26.9469 100.198 25.9716L100.31 25.6994L97.6221 18.2371H99.4137L100.78 22.4106C101.004 23.1137 101.138 23.6808 101.205 24.0437C101.34 23.4993 101.474 22.9776 101.653 22.4333L103.019 18.2144H104.699L102.012 25.7221C101.765 26.4253 101.474 27.015 101.183 27.4459C100.892 27.8769 100.534 28.1944 100.153 28.4213C99.7497 28.6254 99.2794 28.7388 98.6971 28.7388C98.4283 28.7388 98.1596 28.7161 97.9132 28.6708Z" fill="black"/>
</g>
<g id="Group_4">
<path id="Vector_13" d="M34.937 6.21579H37.9156L37.826 6.94161H35.8104V8.34788H37.7141V9.02833H35.8104V10.5934H37.938L37.8708 11.3192H34.937V6.21579Z" fill="black"/>
<path id="Vector_14" d="M39.976 8.73347L38.4084 6.21579H39.3938L40.4687 8.05301L41.5885 6.21579H42.5515L40.9838 8.6881L42.6635 11.3419H41.6557L40.4463 9.32319L39.2146 11.3419H38.2516L39.976 8.73347Z" fill="black"/>
<path id="Vector_15" d="M43.3129 6.21579H44.6791C45.3285 6.21579 45.8212 6.35188 46.1572 6.62406C46.4931 6.89624 46.6723 7.28183 46.6723 7.78083C46.6723 8.12106 46.6051 8.41592 46.4483 8.66542C46.2915 8.91492 46.09 9.11906 45.7988 9.25515C45.5301 9.39124 45.2165 9.45929 44.8582 9.45929C44.6567 9.45929 44.4327 9.4366 44.1864 9.39124V11.3419H43.3129V6.21579ZM45.5077 8.50665C45.6869 8.3252 45.7764 8.09838 45.7764 7.78083C45.7764 7.46329 45.6869 7.23647 45.4853 7.10038C45.3061 6.96429 45.015 6.89624 44.6567 6.89624H44.1864V8.71079C44.4103 8.75615 44.5671 8.75615 44.6791 8.75615C45.0598 8.75615 45.3285 8.66542 45.5077 8.50665Z" fill="black"/>
<path id="Vector_16" d="M47.5457 6.21579H48.4191V10.5934H50.5243L50.4571 11.3419H47.5681V6.21579H47.5457Z" fill="black"/>
<path id="Vector_17" d="M51.8456 11.0924C51.4649 10.8882 51.1962 10.5707 50.9946 10.1851C50.793 9.79951 50.7035 9.34588 50.7035 8.82419C50.7035 8.27983 50.8154 7.80351 51.017 7.39524C51.2186 6.98697 51.5321 6.66942 51.9128 6.46529C52.3159 6.23847 52.7639 6.12506 53.3013 6.12506C53.8164 6.12506 54.242 6.23847 54.6227 6.44261C54.981 6.64674 55.2721 6.96429 55.4737 7.34988C55.6753 7.73547 55.7649 8.1891 55.7649 8.6881C55.7649 9.23247 55.6529 9.70878 55.4513 10.1171C55.2498 10.5253 54.9362 10.8429 54.5555 11.047C54.1748 11.2738 53.7045 11.3872 53.1894 11.3872C52.6519 11.4099 52.204 11.2965 51.8456 11.0924ZM54.1076 10.4573C54.3539 10.2985 54.5331 10.0717 54.6675 9.77683C54.7794 9.48197 54.8466 9.14174 54.8466 8.77883C54.8466 8.41592 54.8018 8.0757 54.6899 7.80351C54.5779 7.50865 54.4211 7.28183 54.1748 7.12306C53.9284 6.94161 53.6373 6.87356 53.2566 6.87356C52.8982 6.87356 52.6071 6.96429 52.3607 7.12306C52.1144 7.30451 51.9352 7.53133 51.8008 7.8262C51.6665 8.12106 51.6217 8.4386 51.6217 8.80151C51.6217 9.16442 51.6889 9.50465 51.8008 9.79951C51.9128 10.0944 52.092 10.3212 52.3383 10.5026C52.5847 10.6841 52.8758 10.7521 53.2342 10.7521C53.5701 10.7068 53.8612 10.6387 54.1076 10.4573Z" fill="black"/>
<path id="Vector_18" d="M56.7279 6.21579H58.318C58.9002 6.21579 59.3258 6.3292 59.6393 6.55602C59.9528 6.78283 60.0872 7.12306 60.0872 7.55402C60.0872 7.8262 60.0424 8.0757 59.9304 8.27983C59.8185 8.48397 59.6841 8.66542 59.5273 8.77883C59.3705 8.91492 59.2138 9.00565 59.0346 9.0737L60.6023 11.3419H59.5721L58.2508 9.30051H57.6013V11.3419H56.7279V6.21579ZM58.094 8.64274C58.2956 8.64274 58.4971 8.59738 58.6539 8.50665C58.8107 8.41592 58.945 8.30251 59.0346 8.14374C59.1242 7.98497 59.169 7.80351 59.169 7.62206C59.169 7.37256 59.0794 7.16843 58.9226 7.05502C58.7659 6.94161 58.5195 6.87356 58.2284 6.87356H57.6013V8.62006H58.094V8.64274Z" fill="black"/>
<path id="Vector_19" d="M61.2742 6.21579H64.2528L64.1632 6.94161H62.1476V8.34788H64.0512V9.02833H62.1476V10.5934H64.2752L64.208 11.3192H61.2742V6.21579Z" fill="black"/>
<path id="Vector_20" d="M67.5001 6.21579H68.3735V11.3419H67.5001V6.21579Z" fill="black"/>
<path id="Vector_21" d="M70.7027 6.94158H69.135L69.2022 6.19308H73.1438L73.0542 6.94158H71.5537V11.3419H70.6803V6.94158H70.7027Z" fill="black"/>
<path id="Vector_22" d="M76.951 11.0924C76.5703 10.8882 76.3015 10.5707 76.1 10.1851C75.8984 9.79951 75.8088 9.34588 75.8088 8.82419C75.8088 8.27983 75.9208 7.80351 76.1224 7.39524C76.3239 6.98697 76.6375 6.66942 77.0182 6.46529C77.4213 6.23847 77.8692 6.12506 78.4067 6.12506C78.9218 6.12506 79.3473 6.23847 79.7281 6.44261C80.0864 6.64674 80.3775 6.96429 80.5791 7.34988C80.7806 7.73547 80.8702 8.1891 80.8702 8.6881C80.8702 9.23247 80.7582 9.70878 80.5567 10.1171C80.3551 10.5253 80.0416 10.8429 79.6609 11.047C79.2801 11.2738 78.8098 11.3872 78.2947 11.3872C77.7572 11.4099 77.3093 11.2965 76.951 11.0924ZM79.213 10.4573C79.4593 10.2985 79.6385 10.0717 79.7728 9.77683C79.8848 9.48197 79.952 9.14174 79.952 8.77883C79.952 8.41592 79.9072 8.0757 79.7952 7.80351C79.6833 7.50865 79.5265 7.28183 79.2801 7.12306C79.0338 6.94161 78.7426 6.87356 78.3619 6.87356C78.0036 6.87356 77.7125 6.96429 77.4661 7.12306C77.2198 7.30451 77.0406 7.53133 76.9062 7.8262C76.7718 8.12106 76.7271 8.4386 76.7271 8.80151C76.7271 9.16442 76.7942 9.50465 76.9062 9.79951C77.0182 10.0944 77.1974 10.3212 77.4437 10.5026C77.6901 10.6841 77.9812 10.7521 78.3395 10.7521C78.6531 10.7068 78.9666 10.6387 79.213 10.4573Z" fill="black"/>
<path id="Vector_23" d="M81.8332 6.21579H82.841L85.3493 10.1851C85.3269 9.79951 85.3269 9.45929 85.3269 9.14174V6.21579H86.1332V11.3419H85.1702L82.6171 7.30452C82.6395 7.75815 82.6619 8.16642 82.6619 8.52933V11.3419H81.8556V6.21579H81.8332Z" fill="black"/>
</g>
</g>
<g id="Group_5">
<g id="&#229;&#189;&#162;&#231;&#138;&#182; 1 &#230;&#139;&#183;&#232;&#180;&#157; 25 7">
<g id="Group_6">
<path id="Vector_24" fill-rule="evenodd" clip-rule="evenodd" d="M22.6195 6.23846H13.3253C8.93582 6.23846 7.34573 7.87155 7.34573 12.2945V21.7074C7.34573 26.1531 8.95821 27.7635 13.3253 27.7635H22.6195C27.009 27.7635 28.5991 26.1304 28.5991 21.7074V12.2945C28.6215 7.87155 27.009 6.23846 22.6195 6.23846Z" fill="#C8102E"/>
</g>
</g>
<g id="Group_7">
<path id="Vector_25" d="M11.5561 17.0123H12.116V19.8249H11.5561V18.6908H10.2796V19.8249H9.71967V17.0123H10.2796V18.1464H11.5561V17.0123ZM14.7363 18.6227C14.7363 19.0764 14.5123 19.3259 14.1092 19.3259C13.7061 19.3259 13.4821 19.0764 13.4821 18.6001V17.0123H12.9222V18.6227C12.9222 19.4166 13.3477 19.8702 14.1092 19.8702C14.8706 19.8702 15.3185 19.4166 15.3185 18.6001V17.0123H14.7587V18.6227H14.7363ZM21.2534 18.9403L20.6263 17.0123H20.156L19.5289 18.9403L18.9242 17.0123H18.3195L19.2826 19.8249H19.7529L20.3799 17.965L21.007 19.8249H21.4773L22.4403 17.0123H21.858L21.2534 18.9403ZM23.4705 18.6227H24.5007V18.1011H23.4705V17.534H24.971V17.0123H22.933V19.8249H25.0382V19.3032H23.4929V18.6227H23.4705ZM25.6877 19.8249H26.2476V17.0123H25.6877V19.8249ZM16.4159 19.2351L16.1696 19.8249H15.5873L16.7966 17.0123H17.2894L18.4987 19.8249H17.9164L17.6925 19.2351H16.4159ZM16.6175 18.7361H17.4685L17.043 17.7381L16.6175 18.7361Z" fill="white"/>
<path id="Vector_26" d="M17.9836 13.4286C16.0352 13.4286 14.4451 11.8182 14.4451 9.84485H14.9378C14.9378 11.546 16.304 12.9296 17.9836 12.9296C19.6633 12.9296 21.0294 11.546 21.0294 9.84485H21.5221C21.5221 11.8182 19.932 13.4286 17.9836 13.4286Z" fill="white"/>
</g>
</g>
</g>
</g>
</svg>
