<svg width="101" height="34" viewBox="0 0 101 34" fill="none" xmlns="http://www.w3.org/2000/svg">
<g id="StoreBadge" clip-path="url(#clip0_7952_2348)">
<g id="Group">
<g id="Group_2">
<g id="Group_3">
<path id="Vector" d="M92.957 0.000964992H8.04755C7.73805 0.000964992 7.43225 0.000964992 7.12357 0.00266499C6.86517 0.00436499 6.60883 0.00930349 6.34795 0.01346C5.78119 0.0201765 5.21577 0.0703898 4.65659 0.163664C4.09821 0.258968 3.55731 0.438643 3.0522 0.696613C2.5477 0.956766 2.08673 1.29481 1.68601 1.69847C1.28318 2.10101 0.947392 2.56628 0.691556 3.0764C0.435013 3.58551 0.257126 4.13106 0.164037 4.69422C0.0700637 5.25667 0.0194957 5.82561 0.012787 6.39592C0.00495445 6.65653 0.0041273 6.91801 0 7.17865V26.8258C0.0041273 27.0897 0.00495445 27.3454 0.012787 27.6094C0.0194978 28.1797 0.0700657 28.7486 0.164037 29.311C0.256869 29.8745 0.434766 30.4204 0.691556 30.9297C0.947276 31.4381 1.28311 31.9015 1.68601 32.3018C2.08521 32.7073 2.54648 33.0455 3.0522 33.3037C3.5573 33.5624 4.09814 33.7431 4.65659 33.8399C5.21586 33.9324 5.78123 33.9827 6.34795 33.9902C6.60883 33.996 6.86517 33.9993 7.12357 33.9993C7.43224 34.001 7.73806 34.001 8.04755 34.001H92.957C93.2603 34.001 93.5686 34.001 93.8719 33.9993C94.1291 33.9993 94.3929 33.996 94.65 33.9902C95.2157 33.9831 95.78 33.9328 96.3381 33.8399C96.8983 33.7424 97.4411 33.5617 97.9487 33.3037C98.4539 33.0454 98.9148 32.7071 99.3136 32.3018C99.7155 31.9 100.052 31.4369 100.311 30.9297C100.566 30.42 100.742 29.8742 100.833 29.311C100.928 28.7485 100.98 28.1797 100.99 27.6094C100.993 27.3454 100.993 27.0897 100.993 26.8258C101 26.517 101 26.2099 101 25.896V8.10668C101 7.7954 101 7.48661 100.993 7.17865C100.993 6.91801 100.993 6.65653 100.99 6.39589C100.98 5.82552 100.928 5.25672 100.833 4.69419C100.742 4.13135 100.566 3.58584 100.311 3.07637C99.7899 2.05388 98.9638 1.22159 97.9487 0.696537C97.4411 0.439197 96.8983 0.259569 96.3381 0.163587C95.7801 0.0699024 95.2157 0.0196716 94.65 0.013341C94.3929 0.00919299 94.1291 0.00421199 93.8719 0.00255449C93.5686 0.000854492 93.2603 0.000854492 92.957 0.000854492V0.000964992Z" fill="black"/>
<path id="Vector_2" d="M7.12767 33.2571C6.87051 33.2571 6.61957 33.2537 6.36442 33.248C5.83588 33.241 5.30857 33.1947 4.78681 33.1093C4.30031 33.025 3.82901 32.868 3.38848 32.6436C2.95198 32.4211 2.55386 32.1293 2.20937 31.7795C1.85989 31.4338 1.56893 31.0328 1.34803 30.5925C1.12469 30.1493 0.970124 29.6742 0.889719 29.1839C0.802889 28.657 0.75591 28.1242 0.749188 27.5901C0.743837 27.4109 0.736832 26.814 0.736832 26.814V7.17851C0.736832 7.17851 0.744293 6.59081 0.74923 6.41815C0.755667 5.88493 0.802372 5.35297 0.888943 4.82689C0.969496 4.33518 1.12418 3.85875 1.34764 3.4141C1.56773 2.97407 1.85707 2.5728 2.20445 2.22585C2.55143 1.8756 2.95082 1.58233 3.38806 1.35675C3.82759 1.1331 4.29799 0.977241 4.78351 0.894397C5.30698 0.808179 5.83612 0.761565 6.3665 0.754946L7.12808 0.744568H93.8678L94.6385 0.755363C95.164 0.761652 95.6883 0.80785 96.207 0.893564C96.6974 0.977447 97.1727 1.13439 97.6173 1.35924C98.4932 1.81386 99.206 2.53311 99.6556 3.41618C99.8755 3.85776 100.028 4.3303 100.107 4.81776C100.195 5.34816 100.244 5.8843 100.254 6.42189C100.256 6.66261 100.256 6.92118 100.256 7.17851C100.263 7.49726 100.263 7.80065 100.263 8.10653V25.8959C100.263 26.2047 100.263 26.506 100.256 26.8098C100.256 27.0862 100.256 27.3395 100.253 27.6001C100.243 28.1281 100.195 28.6546 100.109 29.1755C100.03 29.6694 99.8765 30.1482 99.6532 30.595C99.4307 31.0306 99.1414 31.4281 98.796 31.7729C98.4512 32.1246 98.0524 32.4181 97.6148 32.642C97.1715 32.8681 96.6969 33.0256 96.207 33.1093C95.6853 33.1952 95.1579 33.2415 94.6293 33.248C94.3821 33.2537 94.1233 33.2571 93.8719 33.2571L92.957 33.2588L7.12767 33.2571Z" fill="white"/>
</g>
<g id="&#60;Group&#62;">
<g id="&#60;Group&#62;_2">
<g id="&#60;Group&#62;_3">
<path id="&#60;Path&#62;" d="M21.098 16.9077C21.1074 16.1699 21.302 15.4465 21.6636 14.8049C22.0253 14.1632 22.5422 13.624 23.1663 13.2376C22.7698 12.6674 22.2468 12.1981 21.6387 11.867C21.0306 11.5359 20.3542 11.3522 19.6633 11.3304C18.1894 11.1746 16.7605 12.2186 16.0095 12.2186C15.2439 12.2186 14.0875 11.3459 12.8423 11.3717C12.0368 11.3979 11.2519 11.6338 10.5639 12.0563C9.87584 12.4789 9.30825 13.0737 8.91638 13.7829C7.21895 16.7426 8.48508 21.0924 10.1111 23.4848C10.9247 24.6563 11.8754 25.9649 13.1196 25.9185C14.337 25.8676 14.7917 25.1367 16.2612 25.1367C17.7171 25.1367 18.1437 25.9185 19.413 25.889C20.7194 25.8676 21.5425 24.7123 22.3275 23.5297C22.912 22.6949 23.3618 21.7724 23.6602 20.7962C22.9012 20.4729 22.2536 19.9318 21.7979 19.2403C21.3423 18.5488 21.0988 17.7376 21.098 16.9077Z" fill="black"/>
<path id="&#60;Path&#62;_2" d="M18.7004 9.75704C19.4127 8.89593 19.7636 7.78911 19.6786 6.67163C18.5904 6.78673 17.5852 7.3105 16.8633 8.13858C16.5104 8.54311 16.24 9.01374 16.0678 9.52356C15.8956 10.0334 15.8248 10.5724 15.8595 11.1098C16.4038 11.1154 16.9423 10.9966 17.4344 10.7623C17.9264 10.528 18.3593 10.1843 18.7004 9.75704Z" fill="black"/>
</g>
</g>
<g id="Group_4">
<path id="Vector_3" d="M35.704 23.0701H31.7088L30.7494 25.923H29.0572L32.8414 15.3677H34.5995L38.3836 25.923H36.6626L35.704 23.0701ZM32.1226 21.7535H35.2894L33.7283 17.1234H33.6846L32.1226 21.7535Z" fill="black"/>
<path id="Vector_4" d="M46.556 22.076C46.556 24.4674 45.285 26.0039 43.367 26.0039C42.8811 26.0295 42.3979 25.9168 41.9727 25.6787C41.5475 25.4405 41.1974 25.0866 40.9626 24.6575H40.9263V28.4692H39.3578V18.2277H40.8761V19.5077H40.9049C41.1505 19.0806 41.5064 18.7285 41.9349 18.489C42.3634 18.2494 42.8483 18.1313 43.3381 18.1472C45.2776 18.1472 46.556 19.6911 46.556 22.076ZM44.9438 22.076C44.9438 20.5179 44.1442 19.4936 42.9243 19.4936C41.7259 19.4936 40.9198 20.5395 40.9198 22.076C40.9198 23.6266 41.7259 24.665 42.9243 24.665C44.1442 24.665 44.9437 23.6481 44.9437 22.076H44.9438Z" fill="black"/>
<path id="Vector_5" d="M54.967 22.076C54.967 24.4674 53.6956 26.0039 51.7776 26.0039C51.2917 26.0295 50.8085 25.9168 50.3833 25.6787C49.9581 25.4405 49.6081 25.0866 49.3733 24.6575H49.337V28.4692H47.7684V18.2277H49.2867V19.5077H49.3156C49.5611 19.0806 49.9171 18.7285 50.3455 18.489C50.774 18.2494 51.2589 18.1313 51.7487 18.1472C53.6882 18.1472 54.967 19.6911 54.967 22.076ZM53.3544 22.076C53.3544 20.5179 52.5549 19.4936 51.335 19.4936C50.1365 19.4936 49.3304 20.5395 49.3304 22.076C49.3304 23.6266 50.1365 24.665 51.335 24.665C52.5549 24.665 53.3544 23.6481 53.3544 22.076Z" fill="black"/>
<path id="Vector_6" d="M60.5249 22.9822C60.6412 24.029 61.6509 24.7162 63.0307 24.7162C64.3527 24.7162 65.3039 24.0289 65.3039 23.0851C65.3039 22.2658 64.7303 21.7753 63.3719 21.4391L62.0135 21.1095C60.0889 20.6414 59.1954 19.7349 59.1954 18.264C59.1954 16.4428 60.7714 15.1919 63.0084 15.1919C65.224 15.1919 66.7422 16.4428 66.7934 18.264H65.21C65.1152 17.2106 64.2505 16.5748 62.987 16.5748C61.7234 16.5748 60.8588 17.2181 60.8588 18.1544C60.8588 18.9007 61.411 19.3398 62.7619 19.676L63.9167 19.9615C66.0672 20.4737 66.9598 21.3436 66.9598 22.8875C66.9598 24.8623 65.3987 26.0991 62.9144 26.0991C60.59 26.0991 59.0207 24.8913 58.9193 22.9821L60.5249 22.9822Z" fill="black"/>
<path id="Vector_7" d="M70.3467 16.4067V18.2279H71.7998V19.4788H70.3467V23.7213C70.3467 24.3804 70.6376 24.6875 71.2764 24.6875C71.4489 24.6845 71.6212 24.6723 71.7924 24.651V25.8944C71.5052 25.9485 71.2133 25.973 70.9212 25.9675C69.3741 25.9675 68.7707 25.3823 68.7707 23.8898V19.4788H67.6596V18.2279H68.7707V16.4067H70.3467Z" fill="black"/>
<path id="Vector_8" d="M72.6406 22.0765C72.6406 19.6552 74.0566 18.1337 76.2648 18.1337C78.4804 18.1337 79.8898 19.6552 79.8898 22.0765C79.8898 24.5045 78.4878 26.0194 76.2648 26.0194C74.0426 26.0194 72.6406 24.5045 72.6406 22.0765ZM78.2916 22.0765C78.2916 20.4156 77.5358 19.4352 76.2648 19.4352C74.9938 19.4352 74.2379 20.423 74.2379 22.0765C74.2379 23.7442 74.9938 24.717 76.2648 24.717C77.5358 24.717 78.2916 23.7442 78.2916 22.0765H78.2916Z" fill="black"/>
<path id="Vector_9" d="M81.1831 18.2277H82.6791V19.5375H82.7154C82.8166 19.1284 83.0546 18.7669 83.3893 18.5137C83.724 18.2605 84.1351 18.131 84.5534 18.1471C84.7342 18.1465 84.9145 18.1663 85.0908 18.2061V19.6836C84.8626 19.6134 84.6246 19.5811 84.3861 19.5881C84.1582 19.5788 83.931 19.6193 83.7202 19.7067C83.5093 19.7942 83.3197 19.9266 83.1644 20.0948C83.0092 20.263 82.8919 20.463 82.8206 20.6812C82.7493 20.8994 82.7258 21.1305 82.7516 21.3587V25.9233H81.1831L81.1831 18.2277Z" fill="black"/>
<path id="Vector_10" d="M92.3228 23.6636C92.1118 25.0607 90.7608 26.0194 89.0324 26.0194C86.8094 26.0194 85.4296 24.5195 85.4296 22.1131C85.4296 19.6992 86.8168 18.1337 88.9664 18.1337C91.0806 18.1337 92.4101 19.5963 92.4101 21.9296V22.4708H87.013V22.5663C86.9881 22.8495 87.0233 23.1348 87.1163 23.4033C87.2093 23.6717 87.3579 23.9172 87.5523 24.1234C87.7468 24.3295 87.9825 24.4917 88.244 24.5991C88.5054 24.7064 88.7865 24.7565 89.0686 24.7461C89.4393 24.781 89.8113 24.6946 90.1292 24.4996C90.4472 24.3045 90.6941 24.0114 90.8334 23.6636L92.3228 23.6636ZM87.0204 21.3668H90.8408C90.8548 21.1122 90.8165 20.8573 90.7282 20.6183C90.6398 20.3793 90.5034 20.1612 90.3274 19.9778C90.1514 19.7944 89.9396 19.6496 89.7054 19.5525C89.4712 19.4555 89.2196 19.4082 88.9664 19.4136C88.711 19.4121 88.4578 19.4615 88.2214 19.5591C87.9851 19.6566 87.7702 19.8003 87.5893 19.9819C87.4084 20.1635 87.265 20.3794 87.1673 20.6171C87.0697 20.8548 87.0197 21.1096 87.0204 21.3668V21.3668Z" fill="black"/>
</g>
</g>
</g>
<g id="&#60;Group&#62;_4">
<g id="Group_5">
<path id="Vector_11" d="M31.9264 7.42263C32.2553 7.39886 32.5852 7.44889 32.8926 7.56911C33.1999 7.68933 33.4769 7.87674 33.7036 8.11782C33.9303 8.3589 34.101 8.64764 34.2035 8.96322C34.3059 9.2788 34.3376 9.61335 34.2961 9.94274C34.2961 11.5631 33.4265 12.4944 31.9264 12.4944H30.1073V7.42263H31.9264ZM30.8895 11.7772H31.839C32.074 11.7913 32.3092 11.7525 32.5274 11.6636C32.7456 11.5747 32.9414 11.4379 33.1005 11.2631C33.2596 11.0884 33.378 10.8802 33.4471 10.6535C33.5162 10.4269 33.5342 10.1876 33.4999 9.95308C33.5317 9.71947 33.5118 9.48166 33.4417 9.2567C33.3715 9.03173 33.2528 8.82518 33.0941 8.65184C32.9354 8.4785 32.7405 8.34266 32.5236 8.25406C32.3066 8.16546 32.0728 8.12629 31.839 8.13935H30.8895V11.7772Z" fill="black"/>
<path id="Vector_12" d="M35.1797 10.5797C35.1558 10.3281 35.1844 10.0744 35.2636 9.8346C35.3428 9.59484 35.4709 9.3744 35.6396 9.18741C35.8084 9.00043 36.0141 8.85103 36.2435 8.74879C36.473 8.64656 36.7211 8.59375 36.972 8.59375C37.2229 8.59375 37.4711 8.64656 37.7005 8.74879C37.93 8.85103 38.1357 9.00043 38.3044 9.18741C38.4732 9.3744 38.6013 9.59484 38.6805 9.8346C38.7597 10.0744 38.7882 10.3281 38.7644 10.5797C38.7887 10.8315 38.7605 11.0856 38.6815 11.3257C38.6025 11.5659 38.4745 11.7867 38.3057 11.9741C38.1369 12.1614 37.931 12.3112 37.7013 12.4136C37.4717 12.5161 37.2232 12.569 36.972 12.569C36.7208 12.569 36.4724 12.5161 36.2427 12.4136C36.013 12.3112 35.8072 12.1614 35.6384 11.9741C35.4696 11.7867 35.3416 11.5659 35.2626 11.3257C35.1836 11.0856 35.1554 10.8315 35.1797 10.5797ZM37.9928 10.5797C37.9928 9.75001 37.6228 9.26483 36.9733 9.26483C36.3213 9.26483 35.9545 9.75001 35.9545 10.5797C35.9545 11.416 36.3213 11.8974 36.9733 11.8974C37.6228 11.8974 37.9929 11.4127 37.9929 10.5797H37.9928Z" fill="black"/>
<path id="Vector_13" d="M43.5293 12.4938H42.7512L41.9657 9.67489H41.9064L41.1242 12.4938H40.3535L39.3059 8.66635H40.0667L40.7475 11.587H40.8036L41.5849 8.66635H42.3045L43.0859 11.587H43.1452L43.8228 8.66635H44.5728L43.5293 12.4938Z" fill="black"/>
<path id="Vector_14" d="M45.454 8.66658H46.176V9.27461H46.232C46.3271 9.05623 46.4875 8.87316 46.6908 8.75092C46.8941 8.62869 47.1302 8.57338 47.3662 8.5927C47.5511 8.57869 47.7368 8.60677 47.9095 8.67486C48.0822 8.74294 48.2375 8.84928 48.3638 8.98599C48.4901 9.12271 48.5843 9.2863 48.6393 9.46465C48.6944 9.643 48.7088 9.83153 48.6817 10.0163V12.494H47.9316V10.206C47.9316 9.59088 47.6662 9.28499 47.1115 9.28499C46.986 9.2791 46.8606 9.30062 46.7441 9.34807C46.6276 9.39553 46.5226 9.4678 46.4364 9.55993C46.3502 9.65205 46.2848 9.76186 46.2447 9.88182C46.2046 10.0018 46.1907 10.1291 46.204 10.2549V12.4941H45.4539L45.454 8.66658Z" fill="black"/>
<path id="Vector_15" d="M49.8769 7.17249H50.6269V12.4941H49.8769V7.17249Z" fill="black"/>
<path id="Vector_16" d="M51.6696 10.5781C51.6457 10.3266 51.6743 10.0728 51.7536 9.83301C51.8328 9.59325 51.9609 9.3728 52.1297 9.18581C52.2984 8.99882 52.5042 8.84942 52.7336 8.74718C52.9631 8.64494 53.2112 8.59213 53.4622 8.59213C53.7131 8.59213 53.9612 8.64494 54.1907 8.74718C54.4202 8.84942 54.6259 8.99882 54.7946 9.18581C54.9634 9.3728 55.0915 9.59325 55.1707 9.83301C55.25 10.0728 55.2786 10.3266 55.2547 10.5781C55.279 10.8299 55.2507 11.0841 55.1717 11.3242C55.0927 11.5644 54.9647 11.7852 54.7958 11.9725C54.627 12.1599 54.4212 12.3096 54.1915 12.412C53.9618 12.5145 53.7134 12.5674 53.4622 12.5674C53.2109 12.5674 52.9625 12.5145 52.7328 12.412C52.5031 12.3096 52.2973 12.1599 52.1284 11.9725C51.9596 11.7852 51.8316 11.5644 51.7526 11.3242C51.6736 11.0841 51.6453 10.8299 51.6696 10.5781ZM54.4828 10.5781C54.4828 9.74847 54.1127 9.26329 53.4632 9.26329C52.8112 9.26329 52.4444 9.74847 52.4444 10.5781C52.4444 11.4144 52.8112 11.8959 53.4632 11.8959C54.1127 11.8959 54.4828 11.4111 54.4828 10.5781H54.4828Z" fill="black"/>
<path id="Vector_17" d="M56.0443 11.4127C56.0443 10.7237 56.5537 10.3265 57.4579 10.2701L58.4874 10.2103V9.87995C58.4874 9.4757 58.222 9.24743 57.7093 9.24743C57.2906 9.24743 57.0004 9.40224 56.9172 9.67285H56.191C56.2677 9.01543 56.8817 8.59375 57.7439 8.59375C58.6967 8.59375 59.2341 9.07145 59.2341 9.87995V12.4951H58.5121V11.9572H58.4527C58.3323 12.1502 58.1631 12.3075 57.9626 12.413C57.762 12.5186 57.5372 12.5687 57.3112 12.5582C57.1516 12.5749 56.9904 12.5577 56.8378 12.5079C56.6852 12.458 56.5447 12.3764 56.4254 12.2685C56.306 12.1606 56.2104 12.0287 56.1448 11.8813C56.0792 11.7339 56.0449 11.5742 56.0443 11.4127ZM58.4874 11.0856V10.7656L57.5593 10.8254C57.0359 10.8607 56.7985 11.04 56.7985 11.3774C56.7985 11.7219 57.0952 11.9224 57.5032 11.9224C57.6228 11.9345 57.7436 11.9224 57.8583 11.8866C57.9731 11.8508 58.0796 11.7922 58.1714 11.7141C58.2633 11.636 58.3385 11.5402 58.3928 11.4322C58.4471 11.3242 58.4792 11.2064 58.4874 11.0856Z" fill="black"/>
<path id="Vector_18" d="M60.2199 10.5787C60.2199 9.3693 60.8373 8.60314 61.7975 8.60314C62.0351 8.59212 62.2708 8.64941 62.4772 8.76832C62.6836 8.88723 62.8521 9.06284 62.963 9.27464H63.0191V7.17249H63.7691V12.4941H63.0504V11.8894H62.9911C62.8715 12.0998 62.6972 12.2732 62.4868 12.3909C62.2764 12.5086 62.0381 12.5661 61.7976 12.5572C60.8307 12.5572 60.2199 11.7911 60.2199 10.5787ZM60.9948 10.5787C60.9948 11.3905 61.3747 11.879 62.0102 11.879C62.6424 11.879 63.0331 11.3835 63.0331 10.582C63.0331 9.78434 62.6383 9.28173 62.0102 9.28173C61.3788 9.28173 60.9947 9.77354 60.9947 10.5787H60.9948Z" fill="black"/>
<path id="Vector_19" d="M66.8724 10.5797C66.8485 10.3281 66.8771 10.0744 66.9563 9.8346C67.0355 9.59484 67.1636 9.3744 67.3323 9.18741C67.5011 9.00043 67.7068 8.85103 67.9363 8.74879C68.1657 8.64656 68.4138 8.59375 68.6647 8.59375C68.9156 8.59375 69.1638 8.64656 69.3932 8.74879C69.6227 8.85103 69.8284 9.00043 69.9971 9.18741C70.1659 9.3744 70.294 9.59484 70.3732 9.8346C70.4524 10.0744 70.481 10.3281 70.4571 10.5797C70.4814 10.8315 70.4532 11.0856 70.3742 11.3257C70.2952 11.5659 70.1672 11.7867 69.9984 11.9741C69.8296 12.1614 69.6237 12.3112 69.394 12.4136C69.1644 12.5161 68.9159 12.569 68.6647 12.569C68.4135 12.569 68.1651 12.5161 67.9354 12.4136C67.7058 12.3112 67.4999 12.1614 67.3311 11.9741C67.1623 11.7867 67.0343 11.5659 66.9553 11.3257C66.8763 11.0856 66.8481 10.8315 66.8724 10.5797ZM69.6856 10.5797C69.6856 9.75001 69.3155 9.26483 68.666 9.26483C68.014 9.26483 67.6472 9.75001 67.6472 10.5797C67.6472 11.416 68.014 11.8974 68.666 11.8974C69.3155 11.8974 69.6856 11.4127 69.6856 10.5797Z" fill="black"/>
<path id="Vector_20" d="M71.4635 8.66658H72.1855V9.27461H72.2416C72.3367 9.05623 72.497 8.87316 72.7003 8.75092C72.9036 8.62869 73.1398 8.57338 73.3758 8.5927C73.5607 8.57869 73.7464 8.60677 73.919 8.67486C74.0917 8.74294 74.247 8.84928 74.3733 8.98599C74.4997 9.12271 74.5938 9.2863 74.6489 9.46465C74.7039 9.643 74.7184 9.83153 74.6912 10.0163V12.494H73.9412V10.206C73.9412 9.59088 73.6758 9.28499 73.1211 9.28499C72.9955 9.2791 72.8702 9.30062 72.7536 9.34807C72.6371 9.39553 72.5322 9.4678 72.446 9.55993C72.3598 9.65205 72.2944 9.76186 72.2543 9.88182C72.2141 10.0018 72.2003 10.1291 72.2136 10.2549V12.4941H71.4635V8.66658Z" fill="black"/>
<path id="Vector_21" d="M78.9295 7.71371V8.68407H79.753V9.32033H78.9295V11.2884C78.9295 11.6894 79.0936 11.8649 79.4669 11.8649C79.5625 11.8646 79.658 11.8588 79.753 11.8475V12.4767C79.6183 12.501 79.4818 12.5139 79.345 12.5153C78.5108 12.5153 78.1787 12.2198 78.1787 11.4818V9.3203H77.5753V8.68404H78.1787V7.71371H78.9295Z" fill="black"/>
<path id="Vector_22" d="M80.7775 7.17249H81.521V9.28172H81.5803C81.68 9.06129 81.8448 8.87719 82.0522 8.7545C82.2595 8.6318 82.4994 8.57648 82.7392 8.59607C82.9231 8.58599 83.107 8.61692 83.2778 8.68666C83.4485 8.75639 83.6018 8.86322 83.7269 8.9995C83.8519 9.13579 83.9455 9.29818 84.001 9.4751C84.0565 9.65201 84.0726 9.83909 84.0481 10.023V12.4941H83.2973V10.2093C83.2973 9.59797 83.0145 9.28835 82.4845 9.28835C82.3556 9.2777 82.226 9.29555 82.1046 9.34064C81.9833 9.38574 81.8732 9.45699 81.782 9.54942C81.6909 9.64185 81.6209 9.75321 81.5769 9.87573C81.533 9.99825 81.5161 10.129 81.5276 10.2587V12.4941H80.7775L80.7775 7.17249Z" fill="black"/>
<path id="Vector_23" d="M88.4215 11.4601C88.3196 11.8099 88.0988 12.1125 87.7978 12.3149C87.4967 12.5174 87.1346 12.6067 86.7747 12.5674C86.5243 12.5741 86.2755 12.5258 86.0455 12.4259C85.8155 12.326 85.6098 12.1769 85.4428 11.9889C85.2757 11.801 85.1513 11.5786 85.0781 11.3374C85.005 11.0961 84.9848 10.8417 85.019 10.5919C84.9857 10.3412 85.0062 10.0863 85.0792 9.84429C85.1522 9.60232 85.276 9.37897 85.4422 9.18935C85.6083 8.99974 85.813 8.84829 86.0423 8.74527C86.2717 8.64224 86.5203 8.59004 86.7714 8.5922C87.8289 8.5922 88.4669 9.3198 88.4669 10.5217V10.7853H85.7831V10.8276C85.7714 10.9681 85.7889 11.1094 85.8346 11.2427C85.8803 11.3759 85.9531 11.4981 86.0484 11.6013C86.1437 11.7045 86.2594 11.7866 86.388 11.8422C86.5166 11.8978 86.6553 11.9257 86.7953 11.9241C86.9747 11.9458 87.1565 11.9133 87.3175 11.8306C87.4785 11.748 87.6115 11.619 87.6995 11.4601L88.4215 11.4601ZM85.7831 10.2266H87.7028C87.7122 10.0982 87.6949 9.96913 87.6519 9.84782C87.6089 9.72651 87.5411 9.6156 87.453 9.52222C87.3649 9.42884 87.2584 9.35506 87.1403 9.30561C87.0222 9.25616 86.8951 9.23214 86.7673 9.23509C86.6375 9.23345 86.5088 9.25798 86.3886 9.30723C86.2685 9.35649 86.1593 9.42947 86.0676 9.52187C85.9759 9.61428 85.9034 9.72424 85.8546 9.84528C85.8057 9.96632 85.7814 10.096 85.7831 10.2266H85.7831Z" fill="black"/>
</g>
</g>
</g>
</g>
<defs>
<clipPath id="clip0_7952_2348">
<rect width="101" height="34" fill="white" transform="translate(0 0.000976562)"/>
</clipPath>
</defs>
</svg>
